<svg xmlns="http://www.w3.org/2000/svg" viewBox="0 0 355 286">
  <defs>
    <style>
      .cls-1, .cls-3, .cls-6 {
        fill: #020202;
      }

      .cls-1, .cls-2 {
        stroke: #020202;
      }

      .cls-2, .cls-5 {
        fill: none;
      }

      .cls-2 {
        stroke-width: 3px;
      }

      .cls-4, .cls-6 {
        stroke: none;
      }
    </style>
  </defs>
  <g id="корзина" transform="translate(0 -6)">
    <g id="Rectangle_3" data-name="Rectangle 3" class="cls-1" transform="translate(0 6)">
      <rect class="cls-4" width="355" height="17.509" rx="8.755"/>
      <rect class="cls-5" x="0.5" y="0.5" width="354" height="16.509" rx="8.255"/>
    </g>
    <g id="линии" transform="translate(5.605 17.888)">
      <line id="Line_49" data-name="Line 49" class="cls-2" x2="71" y2="119.913" transform="translate(0 0)"/>
      <line id="Line_50" data-name="Line 50" class="cls-2" y2="71.198" transform="translate(71 119.913)"/>
      <line id="Line_72" data-name="Line 72" class="cls-2" x1="37.368" y2="37.473" transform="translate(246.632 187.364)"/>
      <path id="Path_98" data-name="Path 98" class="cls-2" d="M713.962,805,659.4,921.7" transform="translate(-372.041 -803.126)"/>
      <path id="Path_110" data-name="Path 110" class="cls-2" d="M473.444,986.809l-19.777-61.9-58.731,61.9Z" transform="translate(-355.94 -921.436)"/>
      <path id="Path_113" data-name="Path 113" class="cls-2" d="M468.641,919.752l-51.912,60.583,65.152,59.939Z" transform="translate(-296.294 -914.129)"/>
      <path id="Path_111" data-name="Path 111" class="cls-2" d="M403.893,990.241l47.966-51.97,13.256,79.66Z" transform="translate(-331.424 -871.96)"/>
      <path id="Path_119" data-name="Path 119" class="cls-2" d="M446.827,993.677l52.646-41.4v70.692Z" transform="translate(-213.92 -833.644)"/>
      <path id="Path_114" data-name="Path 114" class="cls-2" d="M420.276,1062.444l53.423-18.727,20.974-28.377h0l18.411-24.909-53.969-68.437" transform="translate(-286.586 -916.473)"/>
      <path id="Path_112" data-name="Path 112" class="cls-2" d="M403.893,1002.378l62.263-42.564-22.042,73.674Z" transform="translate(-331.424 -813.048)"/>
      <path id="Path_115" data-name="Path 115" class="cls-2" d="M414.35,1033.264l64.491-29.009L437.22,959.9" transform="translate(-302.806 -812.824)"/>
      <path id="Path_116" data-name="Path 116" class="cls-2" d="M431.608,1019.914l11.135-65.4,44.57,33.671Z" transform="translate(-255.573 -827.551)"/>
      <path id="Path_120" data-name="Path 120" class="cls-2" d="M445.112,952.744,532.1,936.429" transform="translate(-218.614 -876.998)"/>
      <path id="Path_117" data-name="Path 117" class="cls-2" d="M488.692,963.346l15.324,60.482-72.446-27.655" transform="translate(-255.679 -803.388)"/>
      <path id="Path_121" data-name="Path 121" class="cls-2" d="M781.8,971.211l-20.56,78.3-16.557-47.883-30.706,25.494L671.579,974.26,642.9,1041.422l-35.318-39.794-25.457,25.494-13.166-55.911" transform="translate(-496.243 -781.881)"/>
      <path id="Path_118" data-name="Path 118" class="cls-2" d="M451.376,1075.294l-6.264-83.089,60.859,43.274,27.575-59.458L468.877,922l-23.765,66.333" transform="translate(-218.614 -916.459)"/>
    </g>
    <g id="точки" transform="translate(37.779 70.964)">
      <g id="Ellipse_147" data-name="Ellipse 147" class="cls-1" transform="translate(274.449 0)">
        <ellipse class="cls-4" cx="6.218" cy="6.218" rx="6.218" ry="6.218"/>
        <ellipse class="cls-5" cx="6.218" cy="6.218" rx="5.718" ry="5.718"/>
      </g>
      <g id="Ellipse_123" data-name="Ellipse 123" class="cls-1" transform="translate(33.632 58.696)">
        <circle class="cls-4" cx="6.218" cy="6.218" r="6.218"/>
        <circle class="cls-5" cx="6.218" cy="6.218" r="5.718"/>
      </g>
      <g id="Ellipse_142" data-name="Ellipse 142" class="cls-1" transform="translate(147.396 67.849)">
        <circle class="cls-4" cx="6.218" cy="6.218" r="6.218"/>
        <circle class="cls-5" cx="6.218" cy="6.218" r="5.718"/>
      </g>
      <g id="Ellipse_143" data-name="Ellipse 143" class="cls-1" transform="translate(94.251 87.846)">
        <circle class="cls-4" cx="6.218" cy="6.218" r="6.218"/>
        <circle class="cls-5" cx="6.218" cy="6.218" r="5.718"/>
      </g>
      <g id="Ellipse_146" data-name="Ellipse 146" class="cls-1" transform="translate(194.316 99.917)">
        <circle class="cls-4" cx="6.218" cy="6.218" r="6.218"/>
        <circle class="cls-5" cx="6.218" cy="6.218" r="5.718"/>
      </g>
      <g id="Ellipse_149" data-name="Ellipse 149" class="cls-1" transform="translate(138.263 133.642)">
        <circle class="cls-4" cx="6.218" cy="6.218" r="6.218"/>
        <circle class="cls-5" cx="6.218" cy="6.218" r="5.718"/>
      </g>
      <g id="Ellipse_126" data-name="Ellipse 126" class="cls-1" transform="translate(246.632 58.696)">
        <circle class="cls-4" cx="6.218" cy="6.218" r="6.218"/>
        <circle class="cls-5" cx="6.218" cy="6.218" r="5.718"/>
      </g>
      <g id="Ellipse_127" data-name="Ellipse 127" class="cls-1" transform="translate(246.632 129.895)">
        <circle class="cls-4" cx="6.218" cy="6.218" r="6.218"/>
        <circle class="cls-5" cx="6.218" cy="6.218" r="5.718"/>
      </g>
      <g id="Ellipse_150" data-name="Ellipse 150" class="cls-1" transform="translate(224.211 208.6)">
        <circle class="cls-4" cx="6.218" cy="6.218" r="6.218"/>
        <circle class="cls-5" cx="6.218" cy="6.218" r="5.718"/>
      </g>
      <g id="Ellipse_134" data-name="Ellipse 134" class="cls-1" transform="translate(209.263 159.873)">
        <circle class="cls-4" cx="6.218" cy="6.218" r="6.218"/>
        <circle class="cls-5" cx="6.218" cy="6.218" r="5.718"/>
      </g>
      <g id="Path_122" data-name="Path 122" class="cls-3" transform="translate(108.368 201.093)">
        <path class="cls-4" d="M 6.218143463134766 11.93628311157227 C 3.065153360366821 11.93628311157227 0.500003457069397 9.371133804321289 0.500003457069397 6.218143463134766 C 0.500003457069397 3.065153360366821 3.065153360366821 0.500003457069397 6.218143463134766 0.500003457069397 C 9.371133804321289 0.500003457069397 11.93628311157227 3.065153360366821 11.93628311157227 6.218143463134766 C 11.93628311157227 9.371133804321289 9.371133804321289 11.93628311157227 6.218143463134766 11.93628311157227 Z"/>
        <path class="cls-6" d="M 6.218143463134766 11.43628311157227 C 9.095433235168457 11.43628311157227 11.43628311157227 9.095433235168457 11.43628311157227 6.218143463134766 C 11.43628311157227 3.340853452682495 9.095433235168457 1.000003457069397 6.218143463134766 1.000003457069397 C 3.340853452682495 1.000003457069397 1.000003457069397 3.340853452682495 1.000003457069397 6.218143463134766 C 1.000003457069397 9.095433235168457 3.340853452682495 11.43628311157227 6.218143463134766 11.43628311157227 M 6.218143463134766 12.43628311157227 C 2.783953428268433 12.43628311157227 3.46313481713878e-06 9.65233325958252 3.46313481713878e-06 6.218143463134766 C 3.46313481713878e-06 2.783953428268433 2.783953428268433 3.46313481713878e-06 6.218143463134766 3.46313481713878e-06 C 9.65233325958252 3.46313481713878e-06 12.43628311157227 2.783953428268433 12.43628311157227 6.218143463134766 C 12.43628311157227 9.65233325958252 9.65233325958252 12.43628311157227 6.218143463134766 12.43628311157227 Z"/>
      </g>
      <g id="Ellipse_136" data-name="Ellipse 136" class="cls-1" transform="translate(73.489 159.873)">
        <circle class="cls-4" cx="6.218" cy="6.218" r="6.218"/>
        <circle class="cls-5" cx="6.218" cy="6.218" r="5.718"/>
      </g>
      <g id="Ellipse_130" data-name="Ellipse 130" class="cls-1" transform="translate(33.632 129.895)">
        <circle class="cls-4" cx="6.218" cy="6.218" r="6.218"/>
        <circle class="cls-5" cx="6.218" cy="6.218" r="5.718"/>
      </g>
      <g id="Ellipse_148" data-name="Ellipse 148" class="cls-1" transform="translate(0 6.235)">
        <ellipse class="cls-4" cx="6.218" cy="6.218" rx="6.218" ry="6.218"/>
        <ellipse class="cls-5" cx="6.218" cy="6.218" rx="5.718" ry="5.718"/>
      </g>
      <g id="Ellipse_144" data-name="Ellipse 144" class="cls-1" transform="translate(82.211 6.235)">
        <ellipse class="cls-4" cx="6.218" cy="6.218" rx="6.218" ry="6.218"/>
        <ellipse class="cls-5" cx="6.218" cy="6.218" rx="5.718" ry="5.718"/>
      </g>
      <g id="Ellipse_145" data-name="Ellipse 145" class="cls-1" transform="translate(186.842 13.729)">
        <ellipse class="cls-4" cx="6.218" cy="6.218" rx="6.218" ry="6.218"/>
        <ellipse class="cls-5" cx="6.218" cy="6.218" rx="5.718" ry="5.718"/>
      </g>
    </g>
  </g>
</svg>
